# xmcd
#
# Track frame offsets:
#	150
#	14419
#	25726
#	38412
#	50934
#	62649
#	72156
#	82297
#	94999
#	104427
#	113501
#	125037
#	135813
#	149500
#	159412
#	171219
#	182569
#	194311
#	206797
#	219332
#
# Disc length: 3090 seconds
#
# Revision: 0
# Processed by: cddbd v1.5.2PL0 Copyright (c) Steve Scherf et al.
# Submitted via: audiograbber 1.83.01
#
DISCID=200c1014
DTITLE=George Jones - Famous Country Music Makers
DYEAR=1999
DGENRE=Country
TTITLE0=Cold Cold Heart
TTITLE1=Swingin' Doors
TTITLE2=A Girl I Used To Know
TTITLE3=Let's Get Together (Duet With Melba Montgomery)
TTITLE4=The Bridge Washed Out
TTITLE5=The Race Is On
TTITLE6=Heartaches And Hangovers
TTITLE7=Don't Be Angry
TTITLE8=Living On Easy Street (Duet With Melba Montgomery)
TTITLE9=The Love Bug
TTITLE10=Talk Back Trembling Lips
TTITLE11=Ragged But Right
TTITLE12=Come Sundown
TTITLE13=Honky Tonk Downstairs
TTITLE14=We Must Have Been Out Of Our Minds (Duet With Melba Montgomery)
TTITLE15=Ruby, Don't Take Your Love To Town
TTITLE16=The Fightin' Side Of Me
TTITLE17=Okie From Muskogee
TTITLE18=Blue Side Of Lonesome
TTITLE19=Take Me
EXTD=
EXTT0=
EXTT1=
EXTT2=
EXTT3=
EXTT4=
EXTT5=
EXTT6=
EXTT7=
EXTT8=
EXTT9=
EXTT10=
EXTT11=
EXTT12=
EXTT13=
EXTT14=
EXTT15=
EXTT16=
EXTT17=
EXTT18=
EXTT19=
PLAYORDER=
